<?xml version="1.0" encoding="utf-8"?>
<!-- Generator: Adobe Illustrator 23.1.0, SVG Export Plug-In . SVG Version: 6.00 Build 0)  -->
<svg version="1.1" id="圖層_1" xmlns="http://www.w3.org/2000/svg" xmlns:xlink="http://www.w3.org/1999/xlink" x="0px" y="0px"
	 viewBox="0 0 460.1 63.2" style="enable-background:new 0 0 460.1 63.2;" xml:space="preserve">
<style type="text/css">
	.st0{fill:#FF5E00;}
	.st1{fill:#AFAEAE;}
</style>
<g>
	<path class="st0" d="M88.3,9.2c5.4-0.1,9.8,4.1,10.1,9.5c0.2,5.4-4.1,10-9.5,10.2c-0.1,0-0.2,0-0.3,0H63.4c-4.3,0-8.1,3-8.9,7.3
		c-0.1,0.5-0.2,1.1-0.2,1.7l0,0L39,4.7c-1.8-4-6.4-5.8-10.4-4c-1.8,0.8-3.2,2.2-4,4L0.7,55.1l-0.3,0.7c-0.1,0.2-0.2,0.4-0.3,0.6
		C0,56.8,0,57.2,0,57.6c0,0.7,0.1,1.3,0.4,2l0,0c1.1,2.3,3.8,3.2,6.1,2.1c0.9-0.4,1.7-1.2,2.1-2.1l0.8-1.7c0,0,0,0,0-0.1l22.3-46.9
		L53.2,57l1.1,2.4l0,0c0.1,0.2,0.2,0.4,0.4,0.6c1.3,2.2,4.1,3,6.3,1.8c1.2-0.7,2-1.9,2.3-3.2c0-0.2,0.1-0.3,0.1-0.5
		c0-0.1,0-0.3,0-0.4l0,0V38h25.1c10.5,0,19-8.5,18.9-19c0-0.1,0-0.3,0-0.4C107.3,8.2,98.6,0.1,88.2,0.1H63.6c-5,0-9.1,4.1-9.1,9.1
		c0,0,0,0,0,0L88.3,9.2z"/>
	<polygon class="st0" points="206.4,21.9 192.6,50.2 181.2,26.9 178.8,21.9 171.2,21.9 191.3,63.2 193.8,63.2 214,21.9 	"/>
	<polygon class="st0" points="270.8,46 246.7,21.9 240.7,21.9 240.7,63.2 247.5,63.2 247.5,32.2 270.8,55.6 270.8,63.2 277.6,63.2 
		277.6,21.9 270.8,21.9 	"/>
	<polygon class="st0" points="279.1,21.9 279.1,28.7 294.1,28.7 294.1,63.2 300.9,63.2 300.9,28.7 316,28.7 316,21.9 	"/>
	<path class="st0" d="M156,21.9h-16.5v41.2H156c11.2,0,20.3-9.1,20.3-20.3v-0.6C176.3,31,167.2,21.9,156,21.9z M146.2,28.7h9.5
		c7.7,0,13.9,6.2,13.9,13.9c0,7.7-6.2,13.9-13.9,13.9h-9.5V28.7z"/>
	<polygon class="st0" points="117.8,21.9 115.3,21.9 95.2,63.2 102.8,63.2 116.6,34.9 122.4,46.8 114.8,46.8 111.7,53.1 125.4,53.1 
		130.4,63.2 137.9,63.2 	"/>
	<polygon class="st0" points="219,21.9 216.6,21.9 196.4,63.2 204,63.2 217.8,34.9 223.6,46.8 216,46.8 213,53.1 226.7,53.1 
		231.6,63.2 239.2,63.2 	"/>
	<polygon class="st1" points="414.8,21.9 412.3,21.9 392.2,63.2 399.7,63.2 413.5,34.9 419.3,46.8 411.7,46.8 408.7,53.1 
		422.4,53.1 427.3,63.2 434.9,63.2 	"/>
	<polygon class="st1" points="436.8,43.7 436.8,63.2 443.6,63.2 443.6,43.7 460.1,21.9 451.6,21.9 440.2,37 428.7,21.9 420.3,21.9 	
		"/>
	<path class="st1" d="M344.5,21.9h-19.9v24.8l0,0v16.4h6.8V46.7h13.1c6.9,0.2,12.6-5.2,12.8-12.1c0.2-6.9-5.2-12.6-12.1-12.8
		C345,21.9,344.7,21.9,344.5,21.9L344.5,21.9z M348.8,38.4c-1.1,1.1-2.5,1.7-4,1.7h-13.4V28.7h13.4c3.1,0,5.7,2.6,5.7,5.7
		C350.4,35.9,349.8,37.4,348.8,38.4L348.8,38.4z"/>
	<polygon class="st1" points="390.8,56.4 365.1,56.4 365.1,21.9 358.4,21.9 358.4,56.4 358.4,63.2 358.4,63.2 365.1,63.2 
		365.1,63.2 390.8,63.2 	"/>
</g>
</svg>
